<svg xmlns="http://www.w3.org/2000/svg" width="20" height="20"><path d="M16.018 7.605c-1.73-.57-1.036-1.654-2.075-2.075-1.764-.715-3.459-.692-3.459-.692s-1.689-.018-3.458.692c-1.041.418-.345 1.506-2.075 2.075-1.829.602-2.784-.28-2.764-1.37.014-.73.463-1.554 1.38-2.088 2.349-1.37 6.917-1.384 6.917-1.384s4.569.014 6.917 1.384c.91.531 1.36 1.346 1.38 2.073.029 1.097-.926 1.99-2.763 1.385zm-7.895-.491h1.178V8.3h2.373V7.114h1.187V8.3l4.753 4.146v2.767c0 .763-.833 1.383-1.596 1.383H4.95c-.764 0-1.578-.62-1.578-1.383v-2.767l4.75-4.146V7.114zm2.375 7.727a2.373 2.373 0 100-4.745 2.373 2.373 0 000 4.745z" fill="#F76900" fill-rule="nonzero"/></svg>