<svg xmlns="http://www.w3.org/2000/svg" width="20" height="20"><path d="M2.306 5.728c-.132-.096-.213-.171-.243-.225a.514.514 0 01-.045-.243v-.324c0-.276.075-.501.225-.675.15-.174.399-.261.747-.261l13.806.018c.372 0 .63.078.774.234.144.156.216.372.216.648v.36c0 .108-.012.18-.036.216a2.24 2.24 0 01-.252.252l-6.84 3.942a6.59 6.59 0 01-.414.207c-.168.078-.282.117-.342.117-.132 0-.378-.114-.738-.342l-.288-.18a46.576 46.576 0 01-.792-.432c-.324-.18-.69-.387-1.098-.621a198.3 198.3 0 01-1.26-.729c-1.008-.576-2.148-1.23-3.42-1.962zM17.12 7.096c.204-.132.366-.186.486-.162.12.024.18.12.18.288v6.282c0 .408-.045.729-.135.963-.09.234-.216.411-.378.531-.162.12-.351.195-.567.225-.216.03-.45.045-.702.045H3.98c-.408 0-.738-.054-.99-.162a1.59 1.59 0 01-.594-.414 1.48 1.48 0 01-.306-.585 2.576 2.576 0 01-.09-.675V7.384c0-.228.057-.372.171-.432.114-.06.255-.03.423.09a84.136 84.136 0 001.503.945c.342.21.657.405.945.585.288.18.462.288.522.324.144.096.213.195.207.297a.739.739 0 01-.099.315 6.423 6.423 0 00-.207.414c-.09.192-.186.39-.288.594-.102.204-.198.399-.288.585-.09.186-.159.321-.207.405-.048.084-.063.156-.045.216.018.06.048.105.09.135.042.03.096.039.162.027a.33.33 0 00.189-.126 7.2 7.2 0 00.261-.297c.138-.162.291-.336.459-.522l.477-.531c.15-.168.249-.276.297-.324.06-.06.15-.126.27-.198.12-.072.234-.072.342 0 .072.036.192.108.36.216.168.108.348.222.54.342l.576.396c.192.12.36.222.504.306.144.096.291.156.441.18.15.024.291.027.423.009.132-.018.255-.045.369-.081a1.27 1.27 0 00.261-.108l.378-.225c.192-.114.399-.24.621-.378.222-.138.432-.267.63-.387s.333-.204.405-.252c.12-.072.228-.096.324-.072a.637.637 0 01.288.18 7.2 7.2 0 01.261.297c.138.162.288.342.45.54.162.198.312.387.45.567.138.18.237.306.297.378.06.072.126.111.198.117a.262.262 0 00.189-.054.302.302 0 00.108-.171.313.313 0 00-.045-.234 2.577 2.577 0 01-.144-.324l-.234-.576a22.114 22.114 0 00-.252-.621 4.46 4.46 0 00-.198-.423c-.096-.192-.147-.336-.153-.432-.006-.096.057-.186.189-.27.024-.012.159-.099.405-.261.246-.162.522-.339.828-.531.306-.192.6-.378.882-.558.282-.18.477-.3.585-.36z" fill="#F76900" fill-rule="nonzero"/></svg>