<?xml version="1.0" encoding="utf-8"?>
<!-- Generator: Adobe Illustrator 28.0.0, SVG Export Plug-In . SVG Version: 6.00 Build 0)  -->
<svg version="1.2" baseProfile="tiny" id="Layer_1" xmlns="http://www.w3.org/2000/svg" xmlns:xlink="http://www.w3.org/1999/xlink"
	 x="0px" y="0px" viewBox="0 0 30 30" overflow="visible" xml:space="preserve">
<rect x="-8.3" y="-8.3" width="45.56" height="45.56"/>
<path fill="#FFFFFF" d="M12.43,16.54h5.65v0c0.95,0,1.87-0.19,2.7-0.54c1.24-0.53,2.3-1.4,3.04-2.51c0.75-1.1,1.18-2.44,1.18-3.87
	c0-0.95-0.19-1.87-0.54-2.7c-0.53-1.24-1.4-2.3-2.51-3.04c-1.1-0.75-2.44-1.18-3.87-1.18H5l3.08,3.08h10c0.54,0,1.04,0.11,1.5,0.3
	c0.69,0.29,1.28,0.78,1.69,1.4c0.41,0.62,0.66,1.35,0.66,2.15c0,0.54-0.11,1.04-0.3,1.5c-0.29,0.69-0.78,1.28-1.4,1.69
	c-0.62,0.41-1.35,0.66-2.15,0.66v0H5l13.85,13.85h4.35L12.43,16.54z"/>
</svg>
