<?xml version="1.0" encoding="UTF-8"?>
<svg id="Layer_1" data-name="Layer 1" xmlns="http://www.w3.org/2000/svg" viewBox="0 0 2551.18 850.39">
  <defs>
    <style>
      .cls-1 {
        fill: #fcb017;
      }

      .cls-1, .cls-2, .cls-3, .cls-4, .cls-5 {
        stroke-width: 0px;
      }

      .cls-2 {
        fill: #010101;
      }

      .cls-3 {
        fill: #41c1c6;
      }

      .cls-4 {
        fill: #ee3962;
      }

      .cls-5 {
        fill: #fff;
      }
    </style>
  </defs>
  <rect class="cls-2" x="0" width="2551.18" height="850.39"/>
  <g>
    <g>
      <polygon class="cls-5" points="1740.1 559.94 1773.46 526.59 1773.46 293.15 1740.1 293.15 1740.1 559.94"/>
      <polygon class="cls-5" points="1448.3 293.15 1481.65 326.5 1540.01 326.5 1540.01 559.94 1573.36 559.94 1573.36 326.5 1631.72 326.5 1665.07 293.15 1448.3 293.15"/>
      <path class="cls-5" d="m1003.53,426.55c5.8-4.69,10.9-10.21,15.09-16.41,8.09-11.95,12.83-26.48,12.82-41.96,0-10.31-2.1-20.22-5.9-29.21-5.71-13.49-15.2-24.91-27.17-33-11.96-8.09-26.48-12.83-41.96-12.83h-141.73l33.35,33.35h108.39c5.8,0,11.24,1.16,16.22,3.27,7.46,3.15,13.86,8.46,18.35,15.12,4.5,6.67,7.1,14.6,7.11,23.29,0,5.8-1.16,11.24-3.27,16.22-3.15,7.46-8.46,13.86-15.12,18.35-6.67,4.5-14.6,7.1-23.29,7.11h0s0,.02,0,.02v-.02h-108.38v33.36h108.38v-.02.02s0,0,0,0c5.8,0,11.24,1.17,16.22,3.27,7.46,3.15,13.86,8.46,18.35,15.12,4.5,6.67,7.1,14.6,7.11,23.29,0,5.8-1.16,11.24-3.27,16.22-3.15,7.46-8.46,13.86-15.12,18.35-6.67,4.5-14.6,7.1-23.29,7.11h-108.39l-33.35,33.35h141.73c10.31,0,20.22-2.1,29.21-5.9,13.49-5.71,24.91-15.2,33-27.17,8.09-11.95,12.83-26.48,12.82-41.96,0-10.31-2.1-20.22-5.9-29.21-4.86-11.48-12.48-21.44-22.02-29.15Z"/>
      <path class="cls-5" d="m244.9,443.22h61.22c10.32,0,20.23-2.11,29.21-5.91,13.49-5.71,24.91-15.2,33-27.17,8.09-11.95,12.83-26.48,12.82-41.96,0-10.31-2.1-20.22-5.9-29.21-5.71-13.49-15.2-24.91-27.17-33-11.95-8.09-26.48-12.83-41.96-12.83h-141.73l33.34,33.35h108.39c5.8,0,11.24,1.16,16.22,3.27,7.46,3.15,13.86,8.46,18.35,15.12,4.5,6.68,7.1,14.61,7.11,23.3,0,5.8-1.17,11.24-3.27,16.22-3.15,7.46-8.46,13.86-15.12,18.35-6.67,4.5-14.6,7.1-23.3,7.11h0s-141.73,0-141.73,0l150.07,150.06h47.16l-116.71-116.71Z"/>
      <g>
        <path class="cls-5" d="m685.51,309.03c-22.6-15.28-49.96-24.22-79.25-24.22-19.52,0-38.21,3.97-55.17,11.14-25.46,10.77-47.06,28.72-62.34,51.33-15.28,22.6-24.22,49.96-24.22,79.26,0,19.52,3.97,38.21,11.15,55.17,10.77,25.46,28.72,47.06,51.33,62.34,22.6,15.28,49.96,24.22,79.26,24.22,19.52,0,38.21-3.97,55.17-11.15,25.46-10.77,47.06-28.72,62.34-51.33,15.28-22.6,24.22-49.96,24.22-79.26,0-19.52-3.97-38.21-11.14-55.17-10.77-25.46-28.72-47.06-51.33-62.34Zm20.62,159.7c-8.21,19.43-21.98,36.01-39.29,47.7-17.32,11.69-38.08,18.49-60.58,18.5-15.01,0-29.22-3.03-42.18-8.51-19.43-8.21-36.01-21.98-47.7-39.29-11.69-17.32-18.49-38.08-18.5-60.59,0-15.01,3.03-29.23,8.51-42.18,8.21-19.43,21.98-36.01,39.29-47.7,17.32-11.69,38.08-18.49,60.59-18.5,15.01,0,29.22,3.03,42.18,8.51,19.43,8.22,36.01,21.98,47.7,39.29,11.69,17.32,18.49,38.08,18.5,60.59,0,15.01-3.03,29.22-8.51,42.18Z"/>
        <path class="cls-3" d="m606.25,405.79c-11.46,0-20.75,9.29-20.75,20.75s9.29,20.75,20.75,20.75,20.75-9.29,20.75-20.75-9.29-20.75-20.75-20.75Z"/>
      </g>
      <g>
        <path class="cls-5" d="m1335.8,309.03c-22.6-15.28-49.96-24.22-79.25-24.22-19.52,0-38.21,3.97-55.17,11.14-25.46,10.77-47.06,28.72-62.34,51.33-15.28,22.6-24.22,49.96-24.22,79.26,0,19.52,3.97,38.21,11.15,55.17,10.77,25.46,28.72,47.06,51.33,62.34,22.6,15.28,49.96,24.22,79.25,24.22,19.52,0,38.21-3.97,55.17-11.15,25.46-10.77,47.06-28.72,62.34-51.33,15.28-22.6,24.22-49.96,24.22-79.26,0-19.52-3.97-38.21-11.14-55.17-10.77-25.46-28.72-47.06-51.33-62.34Zm20.62,159.7c-8.21,19.43-21.98,36.01-39.29,47.7-17.32,11.69-38.08,18.49-60.59,18.5-15.01,0-29.22-3.03-42.18-8.51-19.43-8.21-36.01-21.98-47.7-39.29-11.69-17.32-18.49-38.08-18.5-60.59,0-15.01,3.03-29.23,8.51-42.18,8.21-19.43,21.98-36.01,39.29-47.7,17.32-11.69,38.08-18.49,60.58-18.5,15.01,0,29.22,3.03,42.18,8.51,19.43,8.22,36.01,21.98,47.7,39.29,11.69,17.32,18.49,38.08,18.5,60.59,0,15.01-3.03,29.22-8.51,42.18Z"/>
        <path class="cls-1" d="m1256.55,405.79c-11.46,0-20.75,9.29-20.75,20.75s9.29,20.75,20.75,20.75,20.75-9.29,20.75-20.75-9.29-20.75-20.75-20.75Z"/>
      </g>
      <g>
        <path class="cls-4" d="m1986.15,426.54c0,11.46,9.29,20.75,20.75,20.75s20.75-9.29,20.75-20.75-9.29-20.76-20.75-20.76-20.75,9.29-20.75,20.76Z"/>
        <path class="cls-5" d="m2083.53,349.9l23.58-23.58c-13.82-13.82-29.85-24.23-46.94-31.15-17.09-6.92-35.23-10.37-53.36-10.37s-36.23,3.46-53.29,10.39c-17.06,6.93-33.06,17.33-46.85,31.12-13.79,13.78-24.19,29.77-31.12,46.82-6.93,17.05-10.4,35.16-10.4,53.27s3.44,36.28,10.36,53.38c6.91,17.1,17.32,33.14,31.15,46.96,13.8,13.81,29.82,24.21,46.89,31.13,17.07,6.92,35.2,10.38,53.32,10.38s36.25-3.46,53.32-10.38c17.07-6.92,33.09-17.33,46.89-31.13l-23.58-23.58h0c-10.62,10.61-22.81,18.52-35.84,23.81-13.03,5.29-26.91,7.94-40.79,7.94s-27.76-2.65-40.79-7.94c-13.04-5.29-25.23-13.2-35.84-23.81-10.63-10.63-18.53-22.84-23.82-35.89-5.28-13.05-7.93-26.96-7.93-40.87s2.65-27.71,7.94-40.72c5.29-13.01,13.2-25.19,23.8-35.8,10.61-10.6,22.79-18.51,35.81-23.81,13.02-5.29,26.88-7.94,40.74-7.94s27.8,2.65,40.84,7.93c13.05,5.29,25.25,13.2,35.88,23.82Z"/>
      </g>
    </g>
    <path class="cls-5" d="m2236.22,317.56h106.29l35.43-35.44h-141.72c-44.05,0-79.72,35.69-79.72,79.72,0,44.04,35.68,79.71,79.72,79.72h70.86c24.46.04,44.25,19.84,44.29,44.31-.05,24.44-19.84,44.24-44.29,44.28h-115.16l-35.43,35.44h150.58c44.04-.01,79.7-35.69,79.72-79.72-.02-44.05-35.68-79.73-79.72-79.73h-70.86c-24.46-.04-44.25-19.83-44.3-44.29.05-24.45,19.84-44.25,44.3-44.29Z"/>
  </g>
</svg>