<svg width="20" height="20" xmlns="http://www.w3.org/2000/svg"><path d="M14.79 16.945l-2.907-2.9-.397.395-.584-.583 1.19-1.205-1.813-1.809-2.248 2.26c.38 1.099.097 2.296-.745 3.136a3.026 3.026 0 01-2.18.903c-.41 0-.82-.083-1.222-.247l-.564-.238 1.375-1.39.015-.86-.81.015-1.408 1.405-.24-.543a3.092 3.092 0 01.656-3.415 3.027 3.027 0 012.18-.902c.3 0 .63.055.96.16l2.25-2.245-3.21-3.22-.396.396-2.378-2.373 1.378-1.376 2.36 2.374-.396.396 3.227 3.22 2.282-2.245a3.035 3.035 0 01.745-3.152A3.027 3.027 0 0114.09 2c.456 0 .856.081 1.225.248l.543.239-1.408 1.405-.015.809.844-.015 1.375-1.39.238.562c.244.583.312 1.21.197 1.813a3.068 3.068 0 01-.853 1.601 3.026 3.026 0 01-2.18.903c-.299 0-.63-.056-.96-.16l-2.25 2.245 1.813 1.825 1.19-1.205.584.584-.396.396 2.906 2.9c.595.594.611 1.573.037 2.183a1.541 1.541 0 01-2.19.002zm.567-.583a.73.73 0 00.51.216.73.73 0 00.509-.216.712.712 0 00.208-.509.713.713 0 00-.208-.509l-2.907-2.9-1.019 1.017 2.907 2.9zM4.675 4.908l.226-.225L3.69 3.46l-.225.225 1.21 1.223z" fill="#F76900" fill-rule="nonzero"/></svg>